/* XPM */
static char *a97fbe3b0e714874a3380f8c3c230d92FMBcOpPXZLFc6V8d[] = {
/* columns rows colors chars-per-pixel */
"48 48 148 2 ",
"   c #713E01",
".  c #63341A",
"X  c #69381B",
"o  c #723D1C",
"O  c #513323",
"+  c #5E3C2B",
"@  c #7B4207",
"#  c #7E4409",
"$  c #794A12",
"%  c #74411C",
"&  c #7F521B",
"*  c #754221",
"=  c #704931",
"-  c #7F5336",
";  c #6D5448",
":  c #745544",
">  c #88370C",
",  c #873C0E",
"<  c #8B3D0E",
"1  c #913D0E",
"2  c #9E3E12",
"3  c #A13F12",
"4  c #93420F",
"5  c #9C420F",
"6  c #844D16",
"7  c #8A4B14",
"8  c #854F19",
"9  c #884F18",
"0  c #914711",
"q  c #9D4511",
"w  c #924A13",
"e  c #805117",
"r  c #82541C",
"t  c #A3430F",
"y  c #A44512",
"u  c #AA4613",
"i  c #A64914",
"p  c #AD4B14",
"a  c #A14818",
"s  c #AF4F19",
"d  c #B44614",
"f  c #B14E14",
"g  c #B94F18",
"h  c #AD5214",
"j  c #AE511A",
"k  c #B25214",
"l  c #BA5717",
"z  c #B55914",
"x  c #BD5D16",
"c  c #B2541B",
"v  c #BA5519",
"b  c #B4591C",
"n  c #BB5D1D",
"m  c #A76A1C",
"M  c #BE621F",
"N  c #BE691D",
"B  c #835620",
"V  c #855A22",
"C  c #8A5D25",
"Z  c #8A5F2A",
"A  c #805437",
"S  c #A64D24",
"D  c #AC5222",
"F  c #B65922",
"G  c #B85A22",
"H  c #B65D28",
"J  c #8C6027",
"K  c #8C622B",
"L  c #91662E",
"P  c #8F6530",
"I  c #916731",
"U  c #946B36",
"Y  c #946D3B",
"T  c #986F3B",
"R  c #9A723F",
"E  c #BF6420",
"W  c #B9622A",
"Q  c #AC7B3C",
"!  c #B17C3B",
"~  c #C05F16",
"^  c #C3571D",
"/  c #C25B1E",
"(  c #C06116",
")  c #C2651F",
"_  c #C5661E",
"`  c #C4661F",
"'  c #C4681F",
"]  c #C6681F",
"[  c #C6691F",
"{  c #C26D1E",
"}  c #C46F1E",
"|  c #C5711E",
" . c #C6721E",
".. c #C8751E",
"X. c #C26521",
"o. c #C36A27",
"O. c #C56A25",
"+. c #C66B27",
"@. c #C56D26",
"#. c #C86D27",
"$. c #C56D2D",
"%. c #C7702D",
"&. c #C7722D",
"*. c #C9712D",
"=. c #9B7442",
"-. c #9C7748",
";. c #9F7A49",
":. c #A27E4F",
">. c #A37F50",
",. c #CE802C",
"<. c #A68457",
"1. c #A8875B",
"2. c #CD926F",
"3. c #D3926F",
"4. c #CD9370",
"5. c #D99771",
"6. c #D59B72",
"7. c #D69E71",
"8. c #D99E71",
"9. c #DA9F72",
"0. c #DBA373",
"q. c #D9A571",
"w. c #DCA871",
"e. c #DEAD7A",
"r. c #D8C9BF",
"t. c #D4CAC5",
"y. c #DACDC4",
"u. c #DCD0C7",
"i. c #D7D0CD",
"p. c #DDD2CB",
"a. c #DDD6D2",
"s. c #DFDAD7",
"d. c #E1D5CE",
"f. c #E1D7D0",
"g. c #E2D8D1",
"h. c #E9D9D0",
"j. c #F4E7DF",
"k. c #F6E9E0",
"l. c #F7EAE1",
"z. c #F9EFE7",
"x. c #F7EEE8",
"c. c #F4EEEA",
"v. c #F8F0E8",
"b. c #F9F0E8",
"n. c #FAF2EB",
"m. c #F6F5F4",
"M. c #F9F7F5",
"N. c #FFFFFF",
/* pixels */
"N.N.N.N.N.N.N.N.N.N.N.N.N.N.N.N.N.N.N.N.N.N.N.N.N.N.N.N.N.N.N.N.N.N.N.N.N.N.N.N.N.N.N.N.N.N.N.N.",
"N.N.N.N.N.N.N.N.N.N.N.N.N.N.N.N.N.N.N.N.N.N.N.N.N.N.N.N.N.N.N.N.N.N.N.N.N.N.N.N.N.N.N.N.N.N.N.N.",
"N.N.N.N.n.0.8.8.0.6.2.2.2.2.4.8.0.8.8.6.q.q.w.w.q.3.5.5.5.3.7.8.0.8.8.6.8.8.8.8.7.e.M.N.N.N.N.N.",
"N.N.N.N.k.) x x ~ x x x z x x ~ ~ l ~ x ( ( x ( M x ~ l x x ~ ~ x x x x ( x x ( x O.z.N.N.N.N.N.",
"N.N.N.N.k.#.M M ' _ ) ) E _ ) ) ) n _ ) ) ) M X.) X.) M ) ) M ( n M M X.) _ M ) M O.z.N.N.N.N.N.",
"N.N.N.N.k.#._ O.X.M ) ' ) _ n ^ / / / n _ _ ' X.) M _ _ _ _ c c c c j n _ ' X._ k H x.N.N.N.N.N.",
"N.N.N.N.j.O.) M X.M ) _ M ) M n / / / n E _ M _ M M X.) ) ) b c c b b M X.) M ) b W b.N.N.N.N.N.",
"N.N.N.N.k.@.) M _ X._ X.M ' ' ' ' M ) O.X.) M X._ ) _ M ) _ X.O.X._ _ ' ' M ) O.X.*.n.N.N.N.N.N.",
"N.N.N.N.k.O.M X.) M ) X.M _ n c c c c c ) ) ) X.M M | { { { n / / / n n ) ) X.) c W x.N.N.N.N.N.",
"N.N.N.N.k.#.) _ _ M ) X.' X.M j c s c c E ) _ _ M | ..| | | / / / / ^ G _ _ _ X.k H x.N.N.N.N.N.",
"N.N.N.N.l.#.) M ' ) ) ) n O.) X.X.n ) ) ) _ M _ ' _ ) M E _ ) X.M ) X.) _ ) M ) ) %.x.N.N.N.N.N.",
"N.N.N.N.j.o.( M ) M n M b n M ) X.E ) X.n X.G ) M M ) M ) M ) ) M M ) M X.E E ) M %.b.N.N.N.N.N.",
"N.N.N.N.j.#.' _ ' M j c c j j ) X._ ) ) / ^ / / / M ' X.X.) M _ ' | X.E O._ ' ' n *.n.N.N.N.N.N.",
"N.N.N.N.k.@.M n M M n n b n n ) ) M ) M M / n / n ) ) E ) ) M ) M M _ ) ) x M ) n @.v.N.N.N.N.N.",
"N.N.N.N.k.#.) ) ' ) ' X.M ' _ ) X.E ) _ ) _ E ) X._ ) M ) ) _ X.M ) _ ' _ ) M ' ) $.v.N.N.N.N.N.",
"N.N.N.N.k.@.) X.' M ) ) ) _ n j c c c c X.) ) _ X.c c c c j E _ X._ ) N | | | | M %.v.N.N.N.N.N.",
"N.N.N.N.j.@.M ) ) M ) ) ) ' M c c c c c ) _ ) ) M c c c b c M ) ) ) X.M | | } } M #.n.N.N.N.N.N.",
"N.N.N.N.l.X.) M O.' ' O.M ' X._ X.n ) O.' _ E X._ ) X.M _ ) _ ' ) X._ ) ' M ) ' _ %.z.N.N.N.N.N.",
"N.N.N.N.l.O.E M ) M / / n / n X.) M ) M n b b b b X.X.M X.X.n b b b b n ) X.M ) M $.b.N.N.N.N.N.",
"N.N.N.N.j.#._ _ ' M ^ / / / v @.x k h h q q y y q h k z k h q p c j j n ' _ _ ' M *.b.N.N.N.N.N.",
"N.N.N.N.k.$.M M _ ) ) / n ) M X.k @                     @   @ j n M M M ' M M ) M #.b.N.N.N.N.N.",
"N.N.N.N.k.#.) M ) ) ) ) M ' ) ) h 8 Y -.-.-.-.-.-.-.-.-.;.Y 6 z E ) ) X.' ' M ) M $.x.N.N.N.N.N.",
"N.N.N.N.k.#.( ) X.E ) _ X.X.n j y 8 I V B B V B B B V B V P 6 n | ' ' N | | | ..b H x.N.N.N.N.N.",
"N.N.N.N.k.o.M M M E n n M n b b i 8 Z B K I I P I K I K B C 7 z M M M M { N ' { b W x.N.N.N.N.N.",
"N.N.N.N.k.O.( X.' M c c c c j O.n 9 J J :.=.=.=.=.=.=.R C J 7 / O._ ' M _ _ ' ' N ,.v.N.N.N.N.N.",
"N.N.N.N.k.$.) M X.M b n c n n X.v 7 J J T R R =.=.=.=.R C C 7 x X.M M M ) M M ) M *.v.N.N.N.N.N.",
"N.N.N.N.k.@.' M ) X.X._ M _ _ ) l 7 J C R R R R R =.R =.C Z 7 x M ) ) O._ ) M ' ) %.v.N.N.N.N.N.",
"N.N.N.N.k.O.) _ ) M ) _ ) ) n / v 7 J C R R =.R =.R R R V K 7 j c c c n _ X.) ' k W x.N.N.N.N.N.",
"N.N.N.N.k.@.X.' X.) ) ) X._ n / g 7 C C =.R =.=.R R =.R C J 7 s b c c n ) ) ) ) h D x.N.N.N.N.N.",
"N.N.N.N.k.#.) M _ O.) ) M ' ' ' n 7 J C R =.R R :.=.R Y V J 7 / M X.) ' ' ) M l f F c.N.N.N.N.N.",
"N.N.N.N.k.O.M M ) M ) ) M ) G n c 7 J r r r r r 6 e r r r J w n / / ) F n v p f i j c.N.N.N.N.N.",
"N.N.N.N.j.O._ ' _ ) X.' ' ' n c p 7 K J P P K I I K I L L Z 0 ^ / / v k f f f f 3 S k.N.N.N.N.N.",
"N.N.N.N.k.#.M M ) M ) X.M ' M M b 7 J =.1.1.1.1.<.1.<.1.;.C w n v f p p f p p f u D x.N.N.N.N.N.",
"N.N.N.N.k.@.) M _ X.) M n M ) ' / w m Q 1.<.<.<.<.<.<.1.;.C w f u p f f f p p k f G x.N.N.N.N.N.",
"N.N.N.N.j.#.X._ X.n j c c c j X.( 7 m Q <.<.<.<.<.<.<.<.;.C 4 f f k f p f f f f u F x.N.N.N.N.N.",
"N.N.N.N.j.O.M n ' M c c c b c ) / w Z =.1.<.1.<.<.1.<.1.;.V 4 u p p p p p u p p u F x.N.N.N.N.N.",
"N.N.N.N.k.#._ M _ _ ' X.) ' O.' / w Z R :.:.>.>.:.<.:.:.R C 4 f p f k k f p p f f F x.N.N.N.N.N.",
"N.N.N.N.k.@.) X.X.X.) X.M n c p i < J C $ $ $ # $ $ $ $ C C 4 p p s p p k k k k u F x.N.N.N.N.N.",
"N.N.N.N.k.O.E x n k k k f f u q 3 > Z V & Z C Z V K C r C C 4 f k f f h z b z z u n k.N.N.N.N.N.",
"N.N.N.N.k.c p u f f f p p f f p p < L C Z =.T :.R =.=.C C C 4 f p p p f k p p k p F x.N.N.N.N.N.",
"N.N.N.N.k.c p u f p d p u d p h f < Z C Z =.R =.R R :.C Z C 4 d u u p p p p p f p b x.N.N.N.N.N.",
"N.N.N.N.j.v k k f p p d d d p f f 1 C C Z =.R =.R R R r J V < 3 y 2 2 p f f f k u F x.N.N.N.N.N.",
"N.N.N.N.j.c p p f p p d u d p s f 1 Z C C =.=.=.Q R :.r J V 1 u y y u u f p p h p F x.N.N.N.N.N.",
"N.N.N.N.k.c p p f f f f p f f d f 1 C Z B T U U U U T r L r 5 f p s k f f p p k f b x.N.N.N.N.N.",
"N.N.N.N.k.c p p f p p f p f i 3 y < C L $ $ $ $ $ $ $ $ K V q u d p p p k k k h t S x.N.N.N.N.N.",
"N.m.c.c.h.a u u p i i p i j a 2 q > C -.-.-.-.-.-.-.-.-.=.r q s j j j j b c z b a S j.M.M.M.M.N.",
"m.; O + = . . . X X % o o o o o o o % % % % % % % % % % % o o o % * * % % * * * o % - A - = : x.",
"N.s.i.i.p.a.a.a.s.g.f.f.f.f.f.d.d.d.d.p.d.p.p.p.p.p.p.p.p.p.p.i.p.p.y.p.d.y.y.y.y.i.r.t.t.t.t.M."
};
