/* XPM */
static char *d1d87855dd754f3b9f0cfac0b4490f6agicsfqCwKRAJVr97[] = {
/* columns rows colors chars-per-pixel */
"48 48 199 2 ",
"   c #3B3632",
".  c #4C3E35",
"X  c #6A593B",
"o  c #6B5444",
"O  c #63594D",
"+  c #6F5B50",
"@  c #796552",
"#  c #7D7256",
"$  c #534E4A",
"%  c #912B12",
"&  c #8E3219",
"*  c #E52500",
"=  c #E52A04",
"-  c #F22D02",
";  c #E63001",
":  c #EB3301",
">  c #E43908",
",  c #E33712",
"<  c #B34C23",
"1  c #BF5734",
"2  c #DF4D04",
"3  c #DF540F",
"4  c #E54703",
"5  c #E55501",
"6  c #E85403",
"7  c #E65C01",
"8  c #E3541A",
"9  c #E86503",
"0  c #E56904",
"q  c #E67B01",
"w  c #E87B05",
"e  c #E87B1C",
"r  c #DD582B",
"t  c #E15520",
"y  c #E07B2D",
"u  c #E36034",
"i  c #825C46",
"p  c #835E49",
"a  c #846447",
"s  c #8E6E5A",
"d  c #836B55",
"f  c #8E755A",
"g  c #96745D",
"h  c #98745E",
"j  c #997855",
"k  c #8A7969",
"l  c #957560",
"z  c #9A7661",
"x  c #9C7963",
"c  c #9D7E69",
"v  c #917F69",
"b  c #8D7F74",
"n  c #C4694E",
"m  c #DC7A5F",
"M  c #E36F46",
"N  c #E57044",
"B  c #E17958",
"V  c #DF7D64",
"C  c #DE9610",
"Z  c #E98201",
"A  c #E78A01",
"S  c #E78500",
"D  c #E49203",
"F  c #E3A119",
"G  c #DF992A",
"H  c #E9A42F",
"J  c #E5A53A",
"K  c #9D836B",
"L  c #938069",
"P  c #9C8A78",
"I  c #A1836C",
"U  c #AA8A67",
"Y  c #B3866F",
"T  c #A28672",
"R  c #A48974",
"E  c #AB8C77",
"W  c #A28A7A",
"Q  c #AC8D78",
"!  c #A9957D",
"~  c #B2937E",
"^  c #B89B7D",
"/  c #DD8D58",
"(  c #DE9475",
")  c #C69978",
"_  c #E9986D",
"`  c #D6AA7B",
"'  c #DDA178",
"]  c #E4AD6E",
"[  c #EDB463",
"{  c #E7C071",
"}  c #8D8592",
"|  c #9C9291",
" . c #B49580",
".. c #A59691",
"X. c #B5A48B",
"o. c #BCA48B",
"O. c #BBA788",
"+. c #B7A694",
"@. c #A49BA0",
"#. c #AFA5AD",
"$. c #B4A9A5",
"%. c #C4A787",
"&. c #CCAD8B",
"*. c #C5AB8A",
"=. c #DFAB86",
"-. c #CEB08C",
";. c #D3B28E",
":. c #DBBB8D",
">. c #D8B78E",
",. c #C2AC94",
"<. c #CEAF91",
"1. c #CFB393",
"2. c #CEB598",
"3. c #CBBB9D",
"4. c #D3B593",
"5. c #D9B796",
"6. c #D6B995",
"7. c #DBBB95",
"8. c #D4B799",
"9. c #D6BA9A",
"0. c #DBBD9C",
"q. c #E1BE9B",
"w. c #E0BF96",
"e. c #E2A787",
"r. c #C0ADA6",
"t. c #C9B9A7",
"y. c #D7BDA3",
"u. c #DABEA1",
"i. c #DDC19E",
"p. c #DFC497",
"a. c #E5C489",
"s. c #E2C39D",
"d. c #EAC79E",
"f. c #CEC1A4",
"g. c #CBC5AD",
"h. c #DDC3A3",
"j. c #D5C6AC",
"k. c #DEC5AA",
"l. c #DECAAC",
"z. c #DAC4A5",
"x. c #DECCB5",
"c. c #DFCBB4",
"v. c #E2C5A3",
"b. c #E4CAA5",
"n. c #EACBA5",
"m. c #E3C6A9",
"M. c #E4CCAB",
"N. c #EACDAB",
"B. c #E9C7A1",
"V. c #F1CFAA",
"C. c #E6D1AE",
"Z. c #ECD1AD",
"A. c #F1D4AE",
"S. c #F2D9A3",
"D. c #E3CDB3",
"F. c #E9CEB1",
"G. c #E2CEBB",
"H. c #E4CBB5",
"J. c #E5D2B4",
"K. c #EBD3B4",
"L. c #EED9B6",
"P. c #E6D3BA",
"I. c #EBD5BA",
"U. c #E7D8BD",
"Y. c #ECDABC",
"T. c #F1D5B4",
"R. c #F3D9B4",
"E. c #F1D7BD",
"W. c #F3DCBC",
"Q. c #F9DFBC",
"!. c #F6E1BC",
"~. c #F9E1BD",
"^. c #E4D4C0",
"/. c #ECD6C3",
"(. c #EDDCC3",
"). c #F2DCC3",
"_. c #F2DECA",
"`. c #EEE1C3",
"'. c #F4E2C4",
"]. c #FAE6C6",
"[. c #FAE4C4",
"{. c #FCE8C6",
"}. c #F4E4CB",
"|. c #F9E6CA",
" X c #F7E8CD",
".X c #FAE9CD",
"XX c #FCEACD",
"oX c #EFE3D5",
"OX c #F6E5D2",
"+X c #F9E6D4",
"@X c #F6E8D1",
"#X c #FEEFD5",
"$X c #FCECD3",
"%X c #FEEFDF",
"&X c #FCECDC",
"*X c #FEF0D4",
"=X c #FFF1D9",
"-X c #FFEEE1",
";X c #FFF0E1",
/* pixels */
"D.P.m.).).).K.h.W._.'.R.h.l.M.J.l.9.!.}.'.T.k..X$X}.].M.P.Y.(.Y.u.K.}.[.W.h.W.$X X{.Z.F.(.U.(.C.",
"OX+XZ.{.XXXXQ.n.{.|.[.W.s.U.Y.!.C.s.[.].[.~.b.R.[.!.R.s.F.Y.P.K.>.R.|.].[.n.K.[.).W.s.M.Y.L.K.i.",
"u.K.b.N.b.v.b.8.i.0.v.Z.h.M.v.8.u.1.9.u.i.C.0.z.0.0.R.N.N.v.5.k.y.H.H.0.C.h.u.i.6.R.C.M.N.;.5.&.",
"[.#X#X.XR.Y.@X@X@XM.R.*X*XXXR.).%X%X-X).P.*X@X XK.C.=X#X#XQ.W.;X%X-X_.M.$X$X$XY.M.=X*X#X[.M.&X&X",
"p.M.n.Z.B.h.M.a.v.>.7.M.v.v.5.u.H.k.M.h.&.5.8.i.8.-.s.0.7.;.-.i.9.9.8.%.8.8.0.6.<.:.:.:.7.;.D.k.",
"G./.M.'.'._.{ C J ).'.L.i.M.D.J.M.7.P.(.Y.K.0.'.}.].).i.D.P.P.P.6.M.).W.I.p.I.$XS.F G s.U.K.J.z.",
"_.}.N.[.[.$XJ D H }.!.R.0.K.I.L.F.0.~.[.[.Q.B.K.W.W.R.q.J.K.K.C.6.R.'.].~.n.N.}.[ A D M.P.K.K.0.",
"h.R.M.K.d.D.] q A ` m.R.M.Z.v.0.k.y.M.v.u.C.h.m.0.i.R.K.K.M.9.F.k.H.F.0.K.h.z.M.` Z A ] Y.;.6.4.",
").#XXXXXR.C._ 0 S y (.#X*XXXR.).-X%X&X).J.@X@X.XK.C.#X$X{.R.T.-X%X&X).h.OXOX@XK.( 0 Z e R.M.&X$X",
"q.s.b.d._ 4 9 S S 5 ' v.7.0.>.4.h.u.K.N.0.m.6.m.i.7.N.7.0.7.4.h.0.v.M.0.M.7.' 3 7 q D 6 / y.G.k.",
"_.oXq.u 8 7 Z A 0 4 M R.i.P.U.U.F.i.XX#X#X[.M..X#X#X[.b.U.(.'.U.0.!.#X$X|.N t 5 w A q 4 r N.`.M.",
"I.'.e.* 4 6 9 7 7 : , V.0.F.K.K.b.4.Z.Z.K.A.7.v.N.C.A.7.m.M.M.v.-.N.K.R.V.> ; 6 9 9 5 4 = e.M.4.",
"h.W.I.B = * : : : , ( '.K.T.M.u.H.m.H.k.z.Y.G.K.z.v.|.(.!.Z.k.(.I./.I.0.(.( , = = > = , B 6.m.u.",
"W.#X}.f.) n m < & E 3.|.XX|.A.I.%X&X&XI.M.'.'.'.b.M.'.].[.Z.F..XOXOX/.v.).g.,.n V r % Y f.h.%X$X",
"v.F.N.v.,.X.3.a # O.0.Z.i.d.0.z.M.u.R.F.h.v.6.K.K.C.L.p.v.h.u.M.5.h.M.0.k.&.o.O.3.j X ! 8.h.J.m.",
"OX+XK.#X}.,.&.j X.#X*X[.b.(.'.}.R.b.XX#X#X{.Z..X*XXX].n.U.'.}.W.0.[.#X#X{.K.[.t.*.U j l.}.}.).b.",
"m.K.s.T.N.| $.+ O n.B.N.7.m.v.i.u.&.u.v.m.Z.6.0.i.s.N.q.v.s.0.0.<.m.N.v.N.7.7...$.v . 9.b.5.6.-.",
"K.|.|.{.C.} t.d $ Z.K.XX X|.C.I.}._.}.G.D.}.'.}.C.K.#X#XXXW.K.&X+X+X_.k.OX}.].@.#.U   }.{.h._./.",
"A.W.).~.n.L +.I k h.v.W.R.R.d.M._.).).F.0.F.J.M.9.7.Z.C.N.s.0.K.K.I.m.4.M.D.K.| P ^ + m.n.5._.(.",
"u.m.u.T.I.# K R L Z.m.M.4.z.y.9.u.8.m.m.z.0.&.N.J.M.C.6.9.z.y.z.&.8.k.u.u.&.M.K d O.@ 2.u.j.z.6.",
"+X&XK..X#Xj.E L x.*X*X~.v.(.}. XL.b..X#XXX{.N.{.#X{.[.b.U.'.}.!.q.].#X*X{.A.[.G.+.L %.K.'.}.).M.",
"v.F.v.Z.n.R.O.f Z.i.s.N.p.h.i.5.0.<.v.v.v.n.8.h.p.s.N.s.v.v.6.u.<.m.N.i.N.7.8.n.*.l n.v.b.;.4.&.",
"W.#X$X.XK.U.`.U.'.M.W.*X#XXXR.I.&X+X+X/.F.@X X}.F.J.=X#X#XW.I.%X&X&X}.h.}.@X XU.k.(.*X$X].v._._.",
"B.Z.A.T.n.h.J.J.M.9.0.K.N.M.p.h.I.I./.N.0.F.l.M.i.6.Z.b.b.q.0.F.H.F.M.4.J.M.M.v.6.A.M.b.d.6._./.",
"H.D.h.R.Y.K.M.5.K.P.J.C.7.z.z.z.z.6.).}.).R.h.W.'.).W.v.m.J.H.J.8.K.}.).W.v.K.}.).W.M.z.J.J.K.h.",
"OX+XK.|.XXXX~.N.].$X|.Q.d.(.).'.K.d.~.[.{.!.B.I.'.[.R.s.J.U.L.K.7.R.[.[.[.n.K.'.].W.B.M.Y.Y.P.i.",
"0.N.m.A.M.v.b.8.0.7.s.Z.i.b.h.6.z.1.u.0.i.C.0.z.0.i.R.M.N.b.9.k.u.M.F.5.N.u.9.i.6.K.N.M.Z.4.8.;.",
"[.#X#X}.T.L.@X}.}.M.L.&X#XXXR.(.-X&X&X/.J.@X$X}.M.K.$X$XXXW.K.-X%X;X).k. X$X@XL.b.$XXX#X~.m.&X$X",
"v.K.T.R.Z.m.C.M.K.i.s.Z.n.n.q.h.F.N.K.F.5.v.h.M.b.i.Z.d.b.q.0.M.h.m.m.4.h.h.M.C.0.Z.n.v.v.i.(.P.",
"/.}.K.{.XX|.W.M. X$X X[.v.U.U.Y.P.v.{.#X|.!.b.$X*X#X].b.P.'.`.).0.R.$X}.].n.'.*X#X].N.J.`.(.Y.b.",
"E.).b.W.'.W.A.s.K.W.R.Z.7.C.K.F.b.4.K.K.R.T.q.v.Z.C.Z.7.m.M.M.v.;.N.R.R.R.s.h.C.N.K.s.i.F.M.m.4.",
"m.W.I.R.b.v.K.v.M.5.b.).K.T.b.h.H.k.H.v.z.Y.D.J.v.b.}.'.W.C.h./.^./.I.0.I.J.J.m.i.[.).W.R.5.h.v.",
"[.XX#X].T.U..X.X}.m.K.$X.X|.T.W.&X&X%X).M.}.'.'.M.m.}.].[.Z.F..X+X+X).v.}.}.'.K.s.[.].[.R.m.%X$X",
"4.0.0.A.n.0.i.8.h.9.6.d.5.7.;.8.i.8.0.0.&.;.*.0.0.8.s.;.4.4.&.8.&.<.5.%.1.&.6.u.8.0.6.;.;.1.y.2.",
"OXOXK..X#XXX[.N.*X$XXX[.m.Y.(.(.L.v.{.&X$X[.n.$X*X*X].v.U.'.}.'.q.).#X#X{.N.].=X#X|.Z.J.}.'.).C.",
"H.E.v.R.T.T.A.7.Z.Z.C.A.7.b.C.m.i.5.N.F.K.A.7.v.M.n.V.s.h.M.v.h.;.M.T.K.A.0.i.M.b.Z.s.s.M.h.h.-.",
"h.Y.P.L.z.z.x.j.l.2.h.(.J.K.z.z.G.c.G.y.3.P.x.x.9.z.).U.I.M.y.^.G.P.H.<.G.x.x.z.8.U.(.I.K.1.z.y.",
"I R T T c K T T T c K R R R K K R R R T K T K T L K R T T I K R R W T c T T K K c E I I I x E W ",
"p p p p p i i i i p p i i p a i i i i i a i p p p p p i p p p i i i i i p i p p p i i i i i @ i ",
"g g g g g g g h g g g h s s l g l h g g g g z g h g h h g g h g h l l g s g g g g g h h h s g g ",
"x h x x x x x x x x x x x x x x x x x x x x x x x z x x x x x x x x x x x x x x x x x x x x x x ",
"x g z x z x x z x x z x h x x x x z x x x x z x h g x x x x x z x x x x z x x z x x x x x x x x ",
"Q Q Q Q Q Q Q Q Q Q Q Q Q Q Q Q E E Q E Q Q Q Q Q Q Q Q Q Q Q Q Q Q Q Q Q Q Q Q Q Q Q Q Q Q Q Q ",
"~  .~ ~ ~ ~  .~ ~ ~ ~ ~ ~ ~ ~ ~ ~ E ~ ~  .E Q  .~ ~ ~ ~ ~ ~ ~ ~ ~ ~ ~ ~ ~ ~ ~ ~ R Q ~ ~ Q R ~ ~ ",
"~  .~ ~  .~ E  .~ ~ ~ ~ ~ ~ ~ ~ ~  .~ ~  .Q Q  .~  .~ ~  .~ ~ ~ ~ ~ ~ ~ ~ ~ ~ ~ ~ ~ ~ ~ ~ E ^ ~ ",
"Q Q Q Q E E T E E Q E Q Q Q Q Q E Q E E Q Q Q E Q E E E Q Q Q Q Q E Q Q E E Q Q E Q Q E Q Q E E ",
"o o o o o o o o o o o o o o o o o o o o o o o o o o o o o o o o o o o o o o o o o o o o o o o o ",
"o o o o o o o o o o o o o o o o o o o o o o o o o o o o o o o o o o o o o o o o o o o o o o o o "
};
