/* XPM */
static char *cd6d9e0b4c684641c0a0e10b701d2ec2lay8MM3PtTNyjU6Y[] = {
/* columns rows colors chars-per-pixel */
"48 48 141 2 ",
"   c #53693A",
".  c #586E42",
"X  c #5D7143",
"o  c #5E744B",
"O  c #647545",
"+  c #697742",
"@  c #677843",
"#  c #6D7A44",
"$  c #62764B",
"%  c #667A4D",
"&  c #6C7C4B",
"*  c #7B7640",
"=  c #747E46",
"-  c #7A7D46",
";  c #737E49",
":  c #6B7D52",
">  c #8C5D36",
",  c #97663E",
"<  c #9A663E",
"1  c #AB6637",
"2  c #A46539",
"3  c #A5683C",
"4  c #BB6E3D",
"5  c #C2723F",
"6  c #936D46",
"7  c #977F45",
"8  c #92754A",
"9  c #9B7951",
"0  c #AA764C",
"q  c #AA784E",
"w  c #BA7140",
"e  c #BE7A46",
"r  c #C57542",
"t  c #C77946",
"y  c #C97A47",
"u  c #CB7D49",
"i  c #D27F4B",
"p  c #778146",
"a  c #7B8247",
"s  c #77814B",
"d  c #7D8449",
"f  c #718155",
"g  c #72845B",
"h  c #78885E",
"j  c #6E8462",
"k  c #718662",
"l  c #778A64",
"z  c #7B8B63",
"x  c #758B6B",
"c  c #7A8D6A",
"v  c #768D70",
"b  c #7D9274",
"n  c #828749",
"m  c #8E8249",
"M  c #85894A",
"N  c #8A8A4B",
"B  c #93864A",
"V  c #9B864A",
"C  c #808750",
"Z  c #8C8858",
"A  c #9E895B",
"S  c #A6864B",
"D  c #AC834A",
"F  c #B6834B",
"G  c #BC834B",
"H  c #A28B5C",
"J  c #A7955F",
"K  c #87997A",
"L  c #8E9E7F",
"P  c #B58F66",
"I  c #C2824B",
"U  c #CE814D",
"Y  c #D4834E",
"T  c #CD8451",
"R  c #D48651",
"E  c #D88752",
"W  c #D58B56",
"Q  c #D98A55",
"!  c #D78D58",
"~  c #D98F5A",
"^  c #DA925C",
"/  c #E0965E",
"(  c #C99161",
")  c #DD9660",
"_  c #DF9862",
"`  c #DB9E6A",
"'  c #E09760",
"]  c #E39D66",
"[  c #E49F68",
"{  c #E4A069",
"}  c #869C84",
"|  c #8A9F85",
" . c #8A9F88",
".. c #8CA18A",
"X. c #93A58C",
"o. c #99AA91",
"O. c #96AB98",
"+. c #9BAE9A",
"@. c #9CB09F",
"#. c #9EB3A2",
"$. c #A2B5A4",
"%. c #A2B7A9",
"&. c #A6BBAE",
"*. c #AABEB3",
"=. c #AEC1B7",
"-. c #AFC3BB",
";. c #B2C6BD",
":. c #B5C9C3",
">. c #B9CCC7",
",. c #BBCECA",
"<. c #BED1CD",
"1. c #C3D6D4",
"2. c #C4D8D7",
"3. c #CCDBD6",
"4. c #C6D9D9",
"5. c #CADCDD",
"6. c #CBDEE0",
"7. c #CEE1E3",
"8. c #D0E2E3",
"9. c #D3E5EA",
"0. c #D6E8EE",
"q. c #CFEDFC",
"w. c #DBEDF4",
"e. c #D3EEFC",
"r. c #DDEFF8",
"t. c #DFF1FA",
"y. c #D9F0FC",
"u. c #DDF2FD",
"i. c #DEF2FD",
"p. c #E0F2FB",
"a. c #E1F3FD",
"s. c #E2F3FD",
"d. c #E3F4FD",
"f. c #E6F6FE",
"g. c #EAF7FE",
"h. c #EDF8FE",
"j. c #EFF8FE",
"k. c #F3FAFE",
"l. c #F5FBFE",
"z. c #F9FDFF",
"x. c #FEFFFF",
/* pixels */
"a.a.a.a.a.a.a.a.a.a.a.a.a.a.a.a.a.a.a.a.a.a.a.a.a.a.a.a.a.a.a.a.a.a.a.a.a.a.a.a.a.a.a.a.a.a.a.a.",
"a.a.a.a.a.a.a.a.a.a.a.a.a.a.a.a.a.a.a.a.a.a.a.a.a.a.a.a.a.a.a.a.a.a.a.a.a.a.a.a.a.a.a.a.a.a.a.a.",
"a.a.a.a.a.a.a.a.a.a.a.a.a.a.a.a.a.a.a.a.a.a.a.a.a.a.a.a.a.a.a.a.a.a.a.a.a.a.a.a.a.a.a.a.a.a.a.a.",
"a.a.a.a.a.a.a.a.a.a.a.a.a.a.a.a.a.a.a.a.a.a.a.a.a.a.a.a.a.a.a.a.a.a.a.a.a.a.a.a.a.a.a.a.a.a.a.a.",
"a.a.a.a.a.a.a.a.a.a.a.a.a.a.a.a.a.a.a.a.a.a.a.a.a.a.a.a.a.a.a.a.a.a.a.a.a.a.a.a.a.a.a.a.a.a.a.a.",
"a.a.a.a.a.a.a.d.l.h.u.a.a.a.a.a.a.a.a.a.a.a.a.a.a.a.a.a.g.a.a.a.a.a.a.a.a.a.a.a.a.a.a.a.a.a.a.a.",
"a.a.a.a.a.a.k.z.x.x.k.a.a.a.a.a.a.a.a.a.a.a.a.a.a.a.h.x.x.l.a.a.a.a.a.a.a.a.h.g.a.a.a.a.a.a.a.a.",
"a.a.a.a.a.k.x.x.x.x.x.l.a.a.a.a.a.a.a.a.a.a.a.a.a.u.h.x.z.l.a.a.a.a.a.a.h.l.x.x.h.a.a.a.a.a.a.a.",
"a.a.a.a.a.a.l.x.x.x.x.x.a.a.a.a.a.a.h.z.g.a.a.a.a.a.u.u.y.u.a.a.a.a.a.h.x.x.x.x.x.k.a.a.a.a.a.a.",
"a.a.a.a.a.u.y.f.g.y.h.d.a.a.a.a.a.l.x.x.x.l.a.a.a.a.a.a.a.a.a.a.a.a.u.h.z.x.x.x.x.x.a.a.a.a.a.a.",
"a.a.a.a.a.a.a.e.e.u.u.u.a.a.a.u.g.x.x.x.x.x.a.a.a.a.a.a.a.a.a.a.a.a.a.y.u.k.k.u.l.g.u.a.a.a.a.a.",
"a.a.a.a.a.a.a.a.a.a.a.a.a.a.a.a.u.u.h.f.u.a.a.a.a.a.a.a.a.a.a.a.a.a.a.s.u.e.q.r.y.y.a.a.a.a.a.a.",
"a.a.a.a.a.a.a.a.a.a.a.a.a.a.a.a.a.a.e.r.a.u.a.a.a.a.a.a.a.a.a.a.a.a.a.a.a.s.a.a.a.a.a.a.a.a.a.a.",
"a.a.a.a.a.a.a.a.a.a.a.a.a.a.a.a.a.a.a.a.a.a.a.a.a.a.a.a.a.a.a.a.a.a.a.a.a.a.a.a.a.a.a.a.a.a.a.a.",
"a.a.a.a.a.a.a.a.a.a.a.a.a.a.a.a.a.a.a.a.a.a.a.a.a.a.a.a.a.a.a.a.a.a.a.a.a.a.a.a.a.a.a.a.a.a.a.a.",
"a.a.a.a.a.a.a.a.a.a.a.a.a.a.a.a.a.a.a.a.a.a.a.a.a.a.a.a.a.a.a.a.a.a.a.a.a.a.a.a.a.a.a.a.a.a.a.a.",
"a.a.a.a.a.a.a.a.a.a.a.a.a.a.a.a.a.a.a.a.a.a.a.a.a.a.a.a.a.a.a.a.a.a.a.a.a.a.a.a.a.a.a.a.a.a.a.a.",
"a.a.a.a.a.a.a.a.a.a.a.a.a.a.a.a.a.a.a.a.a.a.a.a.a.a.a.a.a.a.a.a.a.a.a.a.a.a.a.a.a.a.a.a.a.a.a.a.",
"a.a.a.a.a.a.a.a.a.a.a.a.a.a.a.a.a.a.a.a.a.a.a.a.a.a.a.a.a.a.a.a.a.a.a.a.a.a.a.a.a.a.a.a.a.a.a.a.",
"a.a.f.a.a.a.a.a.a.a.a.a.a.a.a.a.a.a.a.a.a.a.a.a.a.a.a.a.a.a.a.a.a.a.a.a.a.a.a.a.a.a.a.a.a.a.a.a.",
"r.f.0.t.a.a.a.a.a.a.a.a.u.d.a.a.a.a.a.a.a.a.a.a.a.a.a.a.a.a.a.a.a.a.a.a.a.a.a.a.a.a.a.a.a.d.t.t.",
">.6.2.u.a.a.a.a.a.a.a.u.d.d.a.a.a.a.a.a.a.a.a.a.a.a.a.a.a.a.a.a.a.a.a.a.a.a.a.a.a.a.a.a.0.r.8.5.",
"| &.8.a.a.a.p.p.a.a.7.w.d.0.d.d.a.a.a.a.a.a.a.a.a.a.a.a.a.a.a.a.a.a.a.a.a.a.a.a.a.a.a.a.t.4.;.#.",
"l X.3.5.1.w.4.u.w.0.:.1.1.r.r.u.a.d.d.a.d.a.a.a.d.a.d.a.a.a.d.a.d.a.a.a.a.a.d.a.d.a.a.a.w.2.b c ",
"; z $.1.#.+.2.<.:.>.X...>.2.:.a.6.7.9.r.w.w.9.w.r.a.0.r.u.p.w.a.0.a.t.a.a.a.w.t.r.w.u.d.d.&.& @ ",
"a =  .} c . +.*.x ..f % @...b *.O.X.&.w.&.1.-.<.4.;.*.5.,.p.>.1.-.5.7.7.1.7.2.4.%.<.4.>.7.o.d p ",
"n = f O + + l o.X f ; = f g & x $ . b ..b O.k +.;.v k  ...&.=.} c O.<.O.....#.<.o b ..b x f d M ",
"N n = = ; n & ; = = d d & = s & @ @ & $ % : h g o.O O $ % j L X @ c | o l . k K O O : :   # d N ",
"M M a n N N p + M d M n a d n d n M ; # = + d & f a C # # & & ; p & O + s & & O a = # = p d n M ",
"V V V J H 9 * d M M M M n n M n M M n n n d d p @ n n d n a # n n - Z A 8 7 m - N n a n M M M N ",
"Y i y 0 , < e t I G G G G G G G F D S V V V B B m V V S S D D F I e q < 2 u Y Y I I G I I I I I ",
"W W R U i R R R Y R Y Y Y E E E Q E E R R R R Y R Y Y R R E R Q Q ! R Q ~ ^ ~ ~ ^ ~ Q Q Q E E E ",
"^ ^ ^ ^ ^ ^ ^ ^ ^ ^ ~ ~ ^ ~ W W W W W ! ^ ~ ^ ~ ^ ~ ^ ~ ~ W W W W W ~ ~ ^ ~ ^ ^ ^ ~ ^ ^ ~ ^ ~ ^ ",
"^ ' _ ) _ ^ ^ ^ ^ ^ ^ ~ ~ ^ ~ ~ ! ! ! ! ^ ~ ~ ^ ~ ^ ^ ~ ~ W ~ ^ ^ ^ ^ ) _ _ ^ _ ) _ _ / _ _ _ _ ",
"[ [ [ [ { ] { { [ ] _ ] [ { ` ] ^ ^ ^ ^ ~ ~ ^ ^ ^ ^ ~ ^ ^ ~ ^ ^ ^ ^ ` ] { { { { [ [ [ ] [ [ [ [ ",
"] [ [ [ ] [ [ { [ [ [ [ ] ' ^ ^ ^ ~ ^ ^ W R R U T T ! ~ ~ ~ ~ ~ ^ ~ ~ ^ ^ ^ _ _ [ [ [ ` ' [ [ [ ",
"[ ] ] [ ] [ ] ^ _ ^ ^ ^ ~ ^ ~ ~ ^ ^ ! ^ ! R U I e w r r r u W ^ ^ ^ ^ ^ ^ ^ ^ ^ ^ ^ ^ [ [ { [ [ ",
"] [ [ ] ] ^ ^ ^ _ ^ ^ ^ ^ _ _ ^ ^ ^ ^ ^ ^ / ^ ^ ' ^ ^ ^ ) ) ` _ ] { { ] [ { { [ { { { ` ` ( [ [ ",
"[ ] ] [ [ ] ] [ { { [ ] ] [ [ [ ] { { / { { { ] { [ [ { { { { [ ' ^ ^ ~ W W W R W U T P 6 > U U ",
"[ [ [ [ [ [ [ [ [ [ [ ] [ [ [ [ { { { { { { ] ] { { [ ^ ! T U u u t u t t u t t u t w 3 1 4 5 4 ",
"^ ^ ^ ^ ^ ^ ^ ^ ^ ^ _ { { { { { { { { { { ] ] { { ] ] ^ ~ ^ ^ / _ _ ] ] { _ ] [ [ ] _ ' ' ^ ^ ^ ",
"y 5 5 5 5 5 5 t r r r u u U W W ! ! W ^ ] ] { { ] ] ] { { { { { { [ ] [ [ ] [ ] [ [ ] [ { { [ { ",
"5 y t U R W ^ ^ ^ _ ^ _ _ ^ _ _ / ] / { { { { { { { { { { { ] ] { { { { [ ] { [ ] [ [ [ [ [ [ [ ",
"^ ] { { { { { { { { { { { { { { { { { { / / / / / ^ ] / / ^ / / / ^ / _ ] { { { [ { [ ] [ [ ' ] ",
"U U Y W ~ ^ ^ ^ ] ^ / / _ ] ^ ^ / ^ ^ ^ ~ Q Q ^ Q ~ ^ ^ ~ ^ / / / ' ] ] [ _ ^ ^ W W U U y y y y ",
"5 5 5 5 r 5 5 5 r r t y r t t y 5 5 5 5 5 5 5 5 5 5 5 5 U U U U U U u u u r r r 5 r r r 5 r r r ",
"t 5 5 t t 5 t r r r 5 y t r 5 r 5 y y 5 5 5 y 5 5 y y 5 y 5 5 5 r r 5 5 r r r r r r r r r r r r ",
"5 t 5 5 r r 5 r r r 5 t 5 r 5 t y 5 5 y 5 y 5 5 y 5 5 y 5 5 t y r r r r r r r r r r r r r r r r "
};
