/* XPM */
static char *b13bc0f6236c4fe1e5cb3e252d2f2f84AUjf1RcTm1ZSiEPG[] = {
/* columns rows colors chars-per-pixel */
"48 48 223 2 ",
"   c #0B0100",
".  c #190705",
"X  c #220F09",
"o  c #2A0E04",
"O  c #2D150B",
"+  c #24130C",
"@  c #32170C",
"#  c #231410",
"$  c #2B1610",
"%  c #2E1912",
"&  c #2E1D19",
"*  c #241917",
"=  c #321B12",
"-  c #391D12",
";  c #341A14",
":  c #3B2216",
">  c #3C251B",
",  c #372216",
"<  c #3D2C27",
"1  c #3A302E",
"2  c #3F3430",
"3  c #28272C",
"4  c #41261A",
"5  c #43291D",
"6  c #4E2E1D",
"7  c #432616",
"8  c #532B18",
"9  c #52321D",
"0  c #58321D",
"q  c #763607",
"w  c #7B3919",
"e  c #422C22",
"r  c #492B21",
"t  c #41322C",
"y  c #4D3222",
"u  c #553827",
"i  c #583728",
"p  c #573B29",
"a  c #5A3926",
"s  c #433A38",
"d  c #673D28",
"f  c #5E4028",
"g  c #4B403C",
"h  c #5D4233",
"j  c #63432C",
"k  c #74462D",
"l  c #7D4520",
"z  c #614A3C",
"x  c #664631",
"c  c #6F5139",
"v  c #785035",
"b  c #534B48",
"n  c #56524E",
"m  c #5D5455",
"M  c #675448",
"N  c #6B5D54",
"B  c #705C53",
"V  c #785946",
"C  c #786558",
"Z  c #6B645E",
"A  c #6B6162",
"S  c #7D7B76",
"D  c #76736C",
"F  c #990101",
"G  c #900606",
"H  c #9E180F",
"J  c #AC0401",
"K  c #A90505",
"L  c #B30302",
"P  c #BC0000",
"I  c #872901",
"U  c #8F3503",
"Y  c #9A3C01",
"T  c #A72118",
"R  c #A32820",
"E  c #A7342D",
"W  c #B33535",
"Q  c #AF2F2C",
"!  c #C40202",
"~  c #CC0605",
"^  c #D30403",
"/  c #C83229",
"(  c #C63230",
")  c #894516",
"_  c #9E561C",
"`  c #8C522D",
"'  c #8C5133",
"]  c #985633",
"[  c #CF700C",
"{  c #A54647",
"}  c #A5595B",
"|  c #8A6041",
" . c #9F6442",
".. c #826B5C",
"X. c #91625C",
"o. c #93735C",
"O. c #A46D49",
"+. c #B6714E",
"@. c #945D62",
"#. c #8B7571",
"$. c #A67C65",
"%. c #AF7E77",
"&. c #8F5251",
"*. c #CB5F5F",
"=. c #D54E49",
"-. c #C8694D",
";. c #C66C69",
":. c #D77373",
">. c #8E857D",
",. c #948378",
"<. c #AA866C",
"1. c #C38D4F",
"2. c #C28E54",
"3. c #D0925E",
"4. c #C78C64",
"5. c #D4946C",
"6. c #D5986B",
"7. c #CF9A70",
"8. c #DDA479",
"9. c #E6A06F",
"0. c #EAA678",
"q. c #F3A670",
"w. c #8B8D82",
"e. c #948A83",
"r. c #999489",
"t. c #A29996",
"y. c #B79D91",
"u. c #B88282",
"i. c #A5A398",
"p. c #ADA59D",
"a. c #B5AEAC",
"s. c #B6A9A0",
"d. c #BEBAB2",
"f. c #B8B2B2",
"g. c #B0ACA5",
"h. c #C49D85",
"j. c #C9A787",
"k. c #D5AC8A",
"l. c #DDB087",
"z. c #CFA29C",
"x. c #DFB291",
"c. c #E8B688",
"v. c #F2B98D",
"b. c #E3B792",
"n. c #ECB691",
"m. c #EDBC93",
"M. c #E6BA98",
"N. c #F5BE97",
"B. c #D0AFA6",
"V. c #CCB0A5",
"C. c #D1B9AC",
"Z. c #C1BEB8",
"A. c #D2BFB8",
"S. c #CCABA4",
"D. c #EEC39E",
"F. c #FCC697",
"G. c #F7C39A",
"H. c #F9C89D",
"J. c #CCCABE",
"K. c #C5C4BA",
"L. c #D5C4B5",
"P. c #EFC8AA",
"I. c #E7C5A6",
"U. c #F2C8A3",
"Y. c #FACBA3",
"T. c #F4C9A8",
"R. c #FCD3AE",
"E. c #F4D0AC",
"W. c #EDCDB5",
"Q. c #F3CEB3",
"!. c #FFD9B5",
"~. c #CDCCC6",
"^. c #D1CFC4",
"/. c #D9C6C2",
"(. c #DED4C2",
"). c #D5D5CC",
"_. c #DADACD",
"`. c #D6D5C8",
"'. c #CFCFD1",
"]. c #D5D5D2",
"[. c #DDDDD2",
"{. c #DFDBDC",
"}. c #EFD4C1",
"|. c #F6D8C3",
" X c #E1DFD2",
".X c #F3DFD1",
"XX c #EEC4C6",
"oX c #DFE1D5",
"OX c #DDE7DC",
"+X c #FDE3C7",
"@X c #E3E3D7",
"#X c #E4E5D9",
"$X c #E6E9DC",
"%X c #E9E9DE",
"&X c #E9E6D9",
"*X c #F8E9DB",
"=X c #F7E6D8",
"-X c #CFE3EE",
";X c #D3E4F1",
":X c #DCEBF4",
">X c #D7E9F5",
",X c #ECECE3",
"<X c #EAEAE5",
"1X c #F1EEE3",
"2X c #F7ECE5",
"3X c #ECF1E5",
"4X c #EAF2EC",
"5X c #F1F2E5",
"6X c #F2F3EB",
"7X c #FAF3ED",
"8X c #F5F9EB",
"9X c #E1EEF6",
"0X c #E7EDF3",
"qX c #E7F0F9",
"wX c #ECF3F8",
"eX c #EBF1F5",
"rX c #F5F5F3",
"tX c #F7F8F4",
"yX c #F9FAF6",
"uX c #F2F6FA",
"iX c #F5F9FC",
"pX c #FFFFFF",
"aX c #FAF5F2",
/* pixels */
"iXiXuXuXwXwXwXwXqXqXqXqX9X:X:X:X:X>X;X;X;X-X;X-X-X>X9XqXwXuXiXiXyXyXyXaXrX6X,X,X,X$X<X#X#X#X@X6X",
"pXpXpXpXpXpXpXpXpXpXpXpXpXpXpXpXpXpXpXpXpXpXpXpX8X6X1X,X,X%X&X%X#X#X#X@X@XoXoX@X@X@X@X@X@X@X@X,X",
"pXpXpXpXpXpXpXpXpXpXpXpXpXpXpXpXpXpXpXpXpXpXpXpX$X@X[.oX@X X@X@X@X@X@X@X@X@X@X@X@X@X@X@X@X@X@X5X",
"pXpXpXpXpXpXpXpXpXpXpXpXpXpXpXpXpXpXpXpXpXpXpXpX<X X#X#X@X@X@X@X@X@X@X@X@X@X@X@X@X@X@X@X@X@X@X,X",
"pXpXpXpXpXpXpXpXpXpXpXpXpXpXpXpXpXpXpXpXpXpXpXpX$X@X@X@X@X@X@X@X@X@X@X@X@X@X@X#X@X@X@X@X@X#X@X,X",
"pXpXpXpXpXpXpXpXpXpXpXpXpXpXpXpXpXpXpXpXpXyXyXpX3X$X$XoX@X@X@X#X@X@X#X#X#X#X@X@X@X@X@X@X@X@X@X,X",
"pXpXpXpXpXpXpXpXpXpXpXpXpXpXpXpXpXpXpXyXpXpXpXrXJ.Z.^.,X&X X@X@X@X#X@X@X@X@X@X@X@X@X@X@X@X#X@X<X",
"pXpXpXpXpXpXpXpXpXpXpXpXpXpXpXpXpXpXpXpX<Xs...p > : > N ^.8X#X@X@X@X@X#X@X@X@X#X@X@X#X@X@X@X@X<X",
"pXpXpXpXpXpXpXpXpXpXpXpXpXpXpXtXyXpX).,.x 7 - - > : : O t w.^.%XoX@X@X@X@X@X@X@X@X@X@X@X@X@X X%X",
"pXpXpXpXpXpXpXpXpXpXpXpXpXiXpX{.A N v k 4 - < e > 5 5 : $ o e J.%XoX@X@X@X@X@X@X@X#X@X@X@X@X@X<X",
"pXpXpXpXpXpXpXpXpXpXpXpXpXpXpXt.= 9 | | d p d p f 5 = > > 5 @ M ,X@X@X@X@X@X@X@X@X@X#X@X#X@X X,X",
"pXpXpXpXpXpXpXpXpXpXpXpXpXpX<Xm $ r i x p x i 0 7 d + y 5 , > % r.,X@X@X#X@X@X@X#X@X@X@X@X@X X%X",
"pXpXpXpXpXpXpXpXpXpXpXpXpXpXpX).2 = , % 0 8 k ] 4.3.` 7 y , < % b #X@X@X#X X@X#X@X@X@X#X@X@X@X$X",
"pXpXpXpXpXpXpXpXpXpXpXpXpXpXpXpXf.  r O.0.9.F.v.k.0.9.j f r > O M ,XoX@X@X#X@X@X@X@X@X@X@X@X@X%X",
"pXpXpXpXpXpXpXpXpXpXpXpXpXpXpXiXpX3 d c.j.!.U.o.V <.c. .5 x > & K.%X@X@X#X@X@X@X@X#X@X@X#X@X@X#X",
"pXpXpXpXpXpXpXpXpXpXpXpXpXpXpXpXpXp.v x.$.U.U.k.j.b.v.O.% 5 O w.6X X@X@X#X@X@X@X#X X#X@X@X@X@X$X",
"pXpXpXpXpXpXpXpXpXpXpXpXpXpXpXpXpXD.q.A.C Y.R.y.g b.m.O.4.c 1 &X@X@X#X@X@X@X@X@X#X@X@X@X@X@X@X#X",
"pXpXpXpXpXpXpXpXpXpXpXpXpXpXpXpXpX.XN.C.V R.!.j.C I.M.4.6.< p.1X X@X@X@X@X@X@X@X@X@X#X@X@X#X@X#X",
"pXpXpXpXpXpXpXpXpXpXpXpXpXpXpXpXpXpX|.R.R.N.Y.Y.M.I.b.2.  D 3X@X@X@X#X@X#X@X@X@X@X#X@X@X@X@X@X@X",
"pXpXpXpXpXpXpXpXpXpXpXpXpXpXpXyX7XaXyXQ.H.N.T.P.k.c.6.h S %X@X@X@X@X@X@X@X@X@X#X@X@X@X@X@X@X@X#X",
"pXpXpXpXpXpXpXpXpXpXpXpXpXpXpX.Xn.M.=XpX=X+X|.R.l.P.J.`.5X@X@X@X@X@X#X@X@X#X@X@X@X@X@X@X@X@X@X#X",
"pXpXpXpXpXpXpXpXpXpXpXpXpXpXyXP.v.G.E.pXpXXX;.v.+.{ B.%X@X#X#X@X@X@X@X@X@X@X@X@X#X@X@X@X@X@X@X@X",
"iXpXpXpXpXpXpXpXpXpXpXpXpXyXpX7XY.Y..XpX:.! ! / L L K %.$X@X@X@X@X@X@X@X@X@X@X@X X@X#X X@X@X@X@X",
"uXpXpXpXpXpXpXpXpXpXpXpXpXpXpXpX2XN.*X*.L ~ ^ ! L L K J z.3X@X@X@X@X@X@X@X@X@X[.@X@X@X@X@X@XoX@X",
"0XpXyXiXyXyXyXtXyXaXtXtXtXrXaXrXiXU.D.-.J ^ ! ! J L G J W OX X X@X#X#X@X#X#X%X,X<X,X,X,X,X,X,X,X",
"eX,X@X@X X[.[.[._._._._._.).)._._.L.7.j.R P K J L ! F H T /.pXaXyXyXiXpXiXpXpXpXpXpXpXpXpXpXpXpX",
"tX$X@X#X#X#X#X@X#X#X#X#X#X#X#X#X@X#X(._.W ! L L L ^ F 5.E.<XpXpXpXpXpXpXpXpXpXpXpXpXpXpXpXpXpXpX",
"yX$X X@X@X@X@X@X@X@X@X@X@X@X@X@X@X@X<X{.<.=.( Q ( =.} I.R.aXpXpXpXpXpXpXpXpXpXpXpXpXpXpXpXpXpXpX",
"yX#X@X@X#X@X@X@X@X@X@X@X@X@X@X@X@X@X@X`.X.y.C.V.S.u.@.W.Y.aXpXpXpXpXpXpXpXpXpXpXpXpXpXpXpXpXpXpX",
"pX@X@X@X@X@X@X@X@X@X@X@X@X@X@X#X#X@X$X`.&.E E E W { #.}.G.aXpXpXpXpXpXpXpXpXpXpXpXpXpXpXpXpXpXpX",
"yX@X@X#X@X#X@X@X@X@X@X@X@X@X@X@X#X_.1Xi.n w.e.>.#.n n }.H.=XpXpXpXpXpXpXpXpXpXpXpXpXpXpXpXpXpXpX",
"yX@X@X#X@X#X@X@X@X@X@X@X@X#X@X#X#X@X5X>.o = O = ; # < N.G.Q.pXpXpXpXpXpXpXpXpXpXpXpXpXpXpXpXpXpX",
"tXoX@X@X@X@X#X@X@X@X@X@X@X#X@X@X@XoX3XC > , * e u - s W.n.2XpXpXpXpXpXpXpXpXpXpXpXpXpXpXpXpXpXpX",
"tX@X@X@X@X@X@X@X@X#X@X#X@X@X@X@X@X#XoXz 5 X Z C 9 , t rXpXpXpXpXpXpXpXpXpXpXpXpXpXpXpXpXpXpXpXpX",
"8X@X@X@X#X@X@X@X@X@X#X@X@X@X@X#X@X#XoXh 5 . i.r.8 6 < 6XpXpXpXpXpXpXpXpXpXpXpXpXpXpXpXpXpXpXpXpX",
"6X@X@X@X@X@X@X@X@X@X X#X#X@X@X@XoX#X_.h 7 X d.K.r i = '.pXyXpXpXpXpXpXpXpXpXpXpXpXpXpXpXpXpXpXpX",
"6XoX@X@X@X@X@X#X#X@X@X@X X#X@X@X@X&XoXh > + a.#Xz a = ~.pXpXpXpXpXpXpXpXpXpXpXpXpXpXpXpXpXpXpXpX",
"3X@X@X#X@X@X@X@X@X@X@X#X#X@X@X@X@X@XoXz : + K.8X..0 O a.pXpXpXpXpXpXpXpXpXpXpXpXpXpXpXpXpXpXpXpX",
",X@X@X@X@X@X@X@X@X@X#X@X@X@X@X#X&XoX&XM @ & J.8Xt.6 = a.pXiXpXpXpXpXpXpXpXpXpXpXpXpXpXpXpXpXpXpX",
"3X@X#X@X@X@X#X@X@X@X X#X@X@X@X@X@X X%XN @ < `.3XZ.6 - K.pXyXpXpXpXpXpXpXpXpXpXpXpXpXpXpXpXpXpXpX",
",X@X@X@X@X@X@X@X#X@X@X@X@X@X@X@X#XOXeXZ   s #X%XZ.& X Z.pXpXpXpXpXpXpXpXpXpXpXpXpXpXpXpXpXpXpXpX",
"%X@X@X@X#X@X@X#X@X@X@X#X@X@X X<X(.3.1._ q ` @X4Xh.q q h.pXyXpXpXpXpXpXpXpXpXpXpXpXpXpXpXpXpXpXpX",
"%X@X@X@X@X@X@X@X X@X@X@X@X@X{.,X$.I Y U I ) ).2.[ [ Y A.pXyXpXpXpXpXpXpXpXpXpXpXpXpXpXpXpXpXpXpX",
"%X@X#X@X@X@X@X@X#X#X@X@X@X#X@X#XJ.,...e.a.K.).l ) w p.pXpXpXpXpXpXpXpXpXpXpXpXpXpXpXpXpXpXpXpXpX",
"#X@X@X@X@X@X@X@X@X@X@X@X@X#X@X@X<X,X4X3X,X%X#X].'.0XpXpXpXpXpXpXpXpXpXpXpXpXpXpXpXpXpXpXpXpXpXpX",
"#X@X@X@X@X@X@X#X#X@X@X@X@X#X@X@X@X X@X[.@X@X@X@XyXpXpXyXpXpXpXpXpXpXpXpXpXpXpXpXpXpXpXpXpXpXpXpX",
"#X@X#X@X#X@X@X#X@X@X#X@X@X@X@X[.#X X@X@X X@X@X@X7XpXpXpXpXpXpXpXpXpXpXpXpXpXpXpXpXpXpXpXpXpXpXpX",
"#X#X#X#X#X$X#X$X%X%X,X,X,X1X,X5X3X3X6X6X8X8XtXtXyXpXpXpXpXpXpXpXpXpXpXpXpXpXpXpXpXpXpXpXpXpXpXpX"
};
